<svg xmlns="http://www.w3.org/2000/svg" width="24" height="24" viewBox="0 0 24 24" fill="none">
  <g stroke="#0f766e" stroke-width="1.8" stroke-linecap="round" stroke-linejoin="round">
    <path d="M8.25 3.25V5.5"/>
    <path d="M12 3.25V5.5"/>
    <path d="M15.75 3.25V5.5"/>
    <path d="M8.25 18.5V20.75"/>
    <path d="M12 18.5V20.75"/>
    <path d="M15.75 18.5V20.75"/>
    <path d="M3.25 8.25H5.5"/>
    <path d="M3.25 12H5.5"/>
    <path d="M3.25 15.75H5.5"/>
    <path d="M18.5 8.25H20.75"/>
    <path d="M18.5 12H20.75"/>
    <path d="M18.5 15.75H20.75"/>
    <rect x="5.5" y="5.5" width="13" height="13" rx="3.25"/>
    <path d="M10.2 9.6H9.2C7.65 9.6 6.4 10.85 6.4 12.4C6.4 13.95 7.65 15.2 9.2 15.2H10.2"/>
    <path d="M13.8 9.6H14.8C16.35 9.6 17.6 10.85 17.6 12.4C17.6 13.95 16.35 15.2 14.8 15.2H13.8"/>
    <path d="M9.6 12.4H14.4"/>
  </g>
</svg>
